<svg width="310" height="205" viewBox="0 0 310 205" fill="none" xmlns="http://www.w3.org/2000/svg">
<rect width="310" height="205" fill="#E5E5E5"/>
<g clip-path="url(#clip0)">
<rect width="310" height="205" fill="white"/>
<mask id="path-1-inside-1" fill="white">
<path d="M257 140.5C257 128.353 254.362 116.324 249.236 105.102C244.11 93.8792 236.596 83.682 227.125 75.0926C217.653 66.5032 206.409 59.6897 194.034 55.0411C181.658 50.3926 168.395 48 155 48C141.605 48 128.341 50.3926 115.966 55.0411C103.591 59.6897 92.3467 66.5032 82.8751 75.0926C73.4035 83.682 65.8903 93.8792 60.7643 105.102C55.6383 116.324 53 128.353 53 140.5L155 140.5H257Z"/>
</mask>
<path d="M257 140.5C257 128.353 254.362 116.324 249.236 105.102C244.11 93.8792 236.596 83.682 227.125 75.0926C217.653 66.5032 206.409 59.6897 194.034 55.0411C181.658 50.3926 168.395 48 155 48C141.605 48 128.341 50.3926 115.966 55.0411C103.591 59.6897 92.3467 66.5032 82.8751 75.0926C73.4035 83.682 65.8903 93.8792 60.7643 105.102C55.6383 116.324 53 128.353 53 140.5L155 140.5H257Z" fill="#4083C1" stroke="black" stroke-width="2" mask="url(#path-1-inside-1)"/>
</g>
<defs>
<clipPath id="clip0">
<rect width="310" height="205" fill="white"/>
</clipPath>
</defs>
</svg>
